<svg width="166" height="49" viewBox="0 0 166 49" fill="none" xmlns="http://www.w3.org/2000/svg">
<path d="M4.92945 39.8134C3.78695 39.8134 2.84984 39.5892 2.11812 39.141C1.39924 38.68 0.866505 38.0717 0.519903 37.3162C0.173301 36.5478 0 35.7026 0 34.7806V10.6155H4.7754V32.8212C4.7754 33.8457 4.83317 34.5757 4.9487 35.0111C5.07708 35.4337 5.30814 35.6898 5.64191 35.7794C5.97567 35.8563 6.45706 35.8947 7.08608 35.8947L6.66246 39.8134H4.92945Z" fill="#FFFFFF22"/>
<path d="M17.9005 39.8134C15.898 39.8134 14.2997 39.4164 13.1059 38.6224C11.912 37.8284 11.0519 36.7399 10.5256 35.3568C9.9993 33.961 9.73614 32.3602 9.73614 30.5546V20.2201H14.5115V30.5546C14.5115 32.3346 14.8068 33.66 15.3973 34.5309C16.0007 35.3889 16.9763 35.8179 18.3242 35.8179C19.4025 35.8179 20.2947 35.5617 21.0007 35.0495C21.7196 34.5373 22.3165 33.8201 22.7915 32.8981L21.9442 35.3184V20.2201H26.7196V39.4292H22.2523L22.0213 36.0868L23.0611 37.4314C22.5989 38.0205 21.8672 38.5648 20.8659 39.0642C19.8775 39.5636 18.889 39.8134 17.9005 39.8134Z" fill="#FFFFFF22"/>
<path d="M31.1776 39.4292V20.2201H35.2598L35.5679 23.0246L34.8747 22.1794C35.6064 21.6031 36.4793 21.0845 37.4935 20.6235C38.5204 20.1497 39.7143 19.9127 41.075 19.9127C42.102 19.9127 43.007 20.0664 43.7901 20.3738C44.586 20.6683 45.2663 21.0973 45.8312 21.6608C46.396 22.2114 46.8517 22.8709 47.1983 23.6393L46.043 23.3704C46.6592 22.2691 47.5578 21.4175 48.7388 20.8156C49.9326 20.2137 51.2805 19.9127 52.7825 19.9127C54.554 19.9127 55.9982 20.2777 57.115 21.0077C58.2318 21.7376 59.0534 22.7685 59.5797 24.1003C60.106 25.4193 60.3692 26.9689 60.3692 28.7489V39.4292H55.5938V29.0947C55.5938 27.3018 55.3114 25.9764 54.7465 25.1184C54.1945 24.2604 53.2703 23.8314 51.9737 23.8314C51.3319 23.8314 50.767 23.9467 50.2792 24.1772C49.8043 24.3949 49.4063 24.7214 49.0854 25.1568C48.7773 25.5794 48.5462 26.0981 48.3922 26.7128C48.2381 27.3146 48.1611 27.9934 48.1611 28.7489V39.4292H43.3857V29.0947C43.3857 27.9037 43.2573 26.9177 43.0006 26.1365C42.7567 25.3553 42.3587 24.779 41.8067 24.4077C41.2676 24.0235 40.5615 23.8314 39.6886 23.8314C38.5718 23.8314 37.6539 24.0939 36.9351 24.619C36.229 25.1312 35.6064 25.8291 35.0673 26.7128L35.953 24.1387V39.4292H31.1776Z" fill="#FFFFFF22"/>
<path d="M64.6494 39.4292V20.2201H69.4248V39.4292H64.6494ZM64.6494 17.3003V12.5365H69.4248V17.3003H64.6494Z" fill="#FFFFFF22"/>
<path d="M80.1785 39.8134C78.9718 39.8134 77.9897 39.57 77.2323 39.0834C76.475 38.584 75.9165 37.9501 75.5571 37.1817C75.1977 36.4133 75.0179 35.613 75.0179 34.7806V24.1387H72.2836L72.7073 20.2201H75.0179V15.9941L79.7933 15.4947V20.2201H84.0296V24.1387H79.7933V32.8212C79.7933 33.7945 79.8511 34.4988 79.9666 34.9342C80.0822 35.3568 80.3453 35.6258 80.7561 35.741C81.1669 35.8435 81.8216 35.8947 82.7202 35.8947H84.0296L83.606 39.8134H80.1785Z" fill="#FFFFFF22"/>
<path d="M91.2986 39.8134C90.2716 39.8134 89.3345 39.5892 88.4873 39.141C87.64 38.68 86.9661 38.0205 86.4654 37.1625C85.9648 36.3045 85.7145 35.2672 85.7145 34.0506C85.7145 32.9621 85.9648 32.0337 86.4654 31.2653C86.9789 30.4841 87.6464 29.8374 88.468 29.3252C89.3024 28.8001 90.201 28.3904 91.1638 28.0958C92.1394 27.7885 93.0958 27.5644 94.0329 27.4235C94.9828 27.2826 95.8173 27.1994 96.5361 27.1738C96.4848 26.0725 96.2024 25.2721 95.6889 24.7726C95.1754 24.2732 94.3025 24.0235 93.0701 24.0235C92.21 24.0235 91.3692 24.1451 90.5476 24.3885C89.7389 24.619 88.821 24.9839 87.7941 25.4834L87.3704 21.6031C88.5258 21.0397 89.6811 20.6171 90.8365 20.3353C92.0046 20.0536 93.1857 19.9127 94.3795 19.9127C95.8173 19.9127 97.056 20.1689 98.0958 20.6811C99.1357 21.1933 99.938 22.0193 100.503 23.1591C101.068 24.286 101.35 25.7779 101.35 27.6348V32.8212C101.35 33.7817 101.395 34.4796 101.485 34.915C101.575 35.3376 101.742 35.6066 101.985 35.7218C102.229 35.8371 102.582 35.8947 103.045 35.8947H103.661L103.237 39.8134H101.504C100.785 39.8134 100.143 39.7173 99.5785 39.5252C99.0265 39.3459 98.5516 39.0898 98.1536 38.7569C97.7557 38.4239 97.4347 38.0333 97.1908 37.5851C96.5618 38.2894 95.7081 38.8401 94.6298 39.2371C93.5643 39.6213 92.4539 39.8134 91.2986 39.8134ZM93.3012 36.1636C93.7248 36.1636 94.2511 36.0548 94.8802 35.8371C95.5092 35.6066 96.074 35.2544 96.5746 34.7806V30.4009C95.676 30.4393 94.7775 30.5866 93.8789 30.8427C92.9803 31.0988 92.2293 31.4766 91.6259 31.976C91.0226 32.4755 90.7209 33.103 90.7209 33.8585C90.7209 34.6397 90.9263 35.2224 91.3371 35.6066C91.7479 35.9779 92.4026 36.1636 93.3012 36.1636Z" fill="#FFFFFF22"/>
<path d="M111.788 39.8134C110.518 39.8134 109.369 39.6917 108.342 39.4484C107.328 39.2051 106.307 38.8529 105.28 38.3919L105.704 34.3196C106.692 34.8958 107.661 35.3633 108.611 35.7218C109.574 36.0676 110.582 36.2405 111.634 36.2405C112.584 36.2405 113.31 36.0868 113.81 35.7794C114.311 35.4721 114.561 34.9855 114.561 34.3196C114.561 33.8201 114.426 33.4103 114.157 33.0902C113.9 32.77 113.509 32.4819 112.982 32.2258C112.456 31.9696 111.801 31.6943 111.018 31.3998C109.837 30.9644 108.829 30.4905 107.995 29.9783C107.173 29.4661 106.544 28.8514 106.108 28.1342C105.684 27.4043 105.473 26.5079 105.473 25.445C105.473 24.3436 105.761 23.3704 106.339 22.5252C106.917 21.68 107.738 21.0205 108.804 20.5466C109.869 20.0728 111.134 19.8359 112.597 19.8359C113.817 19.8359 114.908 19.9704 115.871 20.2393C116.846 20.5082 117.745 20.8732 118.566 21.3342L118.143 25.4065C117.283 24.8047 116.416 24.3116 115.543 23.9274C114.67 23.5305 113.714 23.332 112.674 23.332C111.853 23.332 111.217 23.4984 110.768 23.8314C110.319 24.1644 110.094 24.6382 110.094 25.2529C110.094 25.9956 110.408 26.5527 111.037 26.9241C111.666 27.2954 112.674 27.75 114.061 28.2879C114.959 28.6337 115.736 28.9922 116.391 29.3636C117.058 29.735 117.61 30.1448 118.047 30.593C118.483 31.0412 118.804 31.5534 119.009 32.1297C119.228 32.6932 119.337 33.3463 119.337 34.089C119.337 35.3056 119.041 36.3429 118.451 37.2009C117.873 38.0461 117.02 38.6928 115.89 39.141C114.773 39.5892 113.406 39.8134 111.788 39.8134Z" fill="#FFFFFF22"/>
<path d="M124.145 48.7264L128.42 38.1614L120.409 20.2201H125.724L130.653 32.5907L135.66 20.2201H140.974L128.92 48.7264H124.145Z" fill="#FFFFFF22"/>
<path d="M146.744 0C146.744 6.70035 152.189 12.1321 158.906 12.1321C152.189 12.1321 146.744 17.5638 146.744 24.2641C146.744 17.5638 141.299 12.1321 134.583 12.1321C141.299 12.1321 146.744 6.70035 146.744 0Z" fill="#FFFFFF22"/>
<path d="M158.906 16.1761C158.906 20.0846 162.082 23.2531 166 23.2531C162.082 23.2531 158.906 26.4216 158.906 30.3301C158.906 26.4216 155.73 23.2531 151.812 23.2531C155.73 23.2531 158.906 20.0846 158.906 16.1761Z" fill="#FFFFFF22"/>
</svg>
